<svg xmlns="http://www.w3.org/2000/svg" viewBox="0 0 122 28">
  <path fill="#000" fill-rule="nonzero"
    d="M6.372 27.136v-8.82h.085a4.67 4.67 0 0 0 .975 1.485c.423.437.934.782 1.534 1.034s1.284.378 2.051.378a5.94 5.94 0 0 0 3.212-.916c.977-.61 1.758-1.538 2.344-2.78.586-1.244.879-2.81.879-4.699 0-1.974-.307-3.58-.922-4.815-.614-1.236-1.41-2.141-2.386-2.717-.977-.575-2.005-.863-3.084-.863-.81 0-1.52.14-2.131.421-.61.28-1.122.654-1.534 1.119a5.004 5.004 0 0 0-.938 1.528H6.33V4.636H.49v22.5h5.881Zm2.472-10.44c-.54 0-1.003-.158-1.39-.474-.388-.316-.686-.764-.895-1.342-.21-.58-.315-1.266-.315-2.062 0-.81.105-1.504.315-2.083.21-.578.507-1.022.894-1.331.388-.31.851-.464 1.39-.464.54 0 1 .155 1.38.464.38.309.672.753.874 1.331.202.58.304 1.274.304 2.083 0 .81-.102 1.504-.304 2.083-.202.579-.494 1.023-.874 1.332-.38.309-.84.463-1.38.463Zm14.78 4.56A7.06 7.06 0 0 0 25.58 21a4.449 4.449 0 0 0 1.588-.82c.465-.377.861-.87 1.188-1.481h.128V21h5.497V9.793c0-.76-.173-1.465-.517-2.115-.344-.65-.843-1.218-1.497-1.705-.653-.486-1.445-.866-2.376-1.14-.93-.273-1.981-.41-3.153-.41-1.626 0-2.983.254-4.07.762-1.086.508-1.912 1.183-2.476 2.024a5.579 5.579 0 0 0-.954 2.754h5.412c.071-.504.282-.879.634-1.124.351-.245.808-.367 1.369-.367.511 0 .93.113 1.257.34.327.228.49.554.49.98v.043a.895.895 0 0 1-.373.751c-.248.189-.651.334-1.209.437-.558.103-1.294.19-2.21.261-.846.064-1.632.203-2.36.416a6.027 6.027 0 0 0-1.913.926 4.135 4.135 0 0 0-1.278 1.561c-.305.636-.458 1.401-.458 2.296 0 1.087.227 1.981.682 2.685a4.127 4.127 0 0 0 1.88 1.571c.799.344 1.72.517 2.765.517Zm1.918-3.708c-.497 0-.905-.12-1.225-.362-.32-.241-.48-.59-.48-1.044 0-.284.07-.542.208-.772a1.66 1.66 0 0 1 .64-.586c.287-.16.658-.275 1.113-.347.234-.035.46-.074.676-.117.217-.042.423-.088.618-.138.196-.05.38-.103.554-.16.174-.057.34-.117.496-.181v1.364c0 .497-.125.92-.373 1.267-.249.348-.57.615-.964.8a2.94 2.94 0 0 1-1.263.276Zm14.195 3.266c.916.351 2.05.491 3.399.42.667-.035 1.244-.11 1.73-.223.487-.114.862-.21 1.125-.288l-.853-4.134c-.113.029-.289.064-.527.107a3.596 3.596 0 0 1-.623.064 1.52 1.52 0 0 1-.629-.112.737.737 0 0 1-.362-.34 1.244 1.244 0 0 1-.117-.57l-.001-6.84h2.813V4.636l-2.813.001V.716H37v3.921h-2.088v4.26L37 8.899v7.393c-.013 1.04.171 1.92.551 2.643l.12.212c.462.76 1.15 1.316 2.067 1.668Zm11.287 0c.916.351 2.049.491 3.398.42.668-.035 1.245-.11 1.731-.223.487-.114.861-.21 1.124-.288l-.852-4.134c-.114.029-.29.064-.527.107a3.596 3.596 0 0 1-.624.064 1.52 1.52 0 0 1-.628-.112.737.737 0 0 1-.362-.34 1.244 1.244 0 0 1-.118-.57v-6.84h2.813V4.636l-2.813.001V.716h-5.88l-.001 3.921h-2.087v4.26l2.087.001v7.393c-.012 1.04.172 1.92.552 2.643l.12.212c.462.76 1.15 1.316 2.067 1.668Zm15.153.484c1.513 0 2.836-.229 3.969-.687 1.133-.458 2.043-1.104 2.732-1.939.69-.834 1.126-1.82 1.31-2.956H68.82a1.95 1.95 0 0 1-.532.783c-.242.217-.531.382-.869.495a3.47 3.47 0 0 1-1.113.17c-.582 0-1.08-.116-1.491-.35a2.395 2.395 0 0 1-.948-.97c-.22-.412-.33-.88-.33-1.406l-.001-.256h10.654v-1.364c0-1.3-.192-2.468-.576-3.505-.383-1.037-.93-1.92-1.64-2.647a7.064 7.064 0 0 0-2.568-1.667c-1.001-.384-2.12-.576-3.356-.576-1.69 0-3.156.352-4.4 1.055a7.309 7.309 0 0 0-2.886 2.951c-.682 1.264-1.023 2.741-1.023 4.432 0 1.761.339 3.272 1.017 4.533a6.936 6.936 0 0 0 2.909 2.898c1.26.67 2.764 1.006 4.511 1.006Zm-2.642-10.355c.014-.476.14-.891.378-1.246s.556-.634.954-.837a2.847 2.847 0 0 1 1.31-.303c.49 0 .929.101 1.316.303.387.203.696.483.927.842.23.359.35.772.357 1.241h-5.242ZM81.597 21v-8.523c0-.625.132-1.17.395-1.635a2.814 2.814 0 0 1 1.08-1.087c.459-.259.976-.389 1.55-.389.306 0 .672.025 1.098.075.426.05.785.124 1.076.224V4.647a5.324 5.324 0 0 0-.73-.165 4.968 4.968 0 0 0-.761-.059c-.874 0-1.636.267-2.285.8-.65.532-1.124 1.374-1.423 2.524h-.17v-3.11h-5.71V21h5.88Zm12.14 0v-9.205c.006-.54.106-1.003.297-1.39.192-.387.467-.685.826-.895.359-.21.78-.314 1.263-.314.738 0 1.315.23 1.73.692.416.462.62 1.098.613 1.907V21h5.881V10.56c.007-1.186-.226-2.241-.698-3.164a5.394 5.394 0 0 0-1.992-2.179c-.856-.53-1.863-.794-3.02-.794-1.2 0-2.25.295-3.148.885a4.627 4.627 0 0 0-1.88 2.44h-.171V4.635h-5.583V21h5.881Zm20.15.298c1.512 0 2.86-.232 4.042-.698 1.183-.465 2.117-1.125 2.802-1.981.686-.856 1.032-1.866 1.039-3.03-.007-1.208-.421-2.172-1.241-2.893-.82-.721-2.069-1.234-3.745-1.54l-3.324-.596c-.625-.114-1.046-.274-1.262-.48-.217-.206-.322-.43-.315-.67-.007-.342.17-.605.533-.79.362-.184.796-.276 1.3-.276.39 0 .747.065 1.07.197.324.131.588.318.794.56.206.24.323.528.352.862h5.412c-.071-1.733-.79-3.09-2.158-4.07-1.367-.98-3.233-1.47-5.598-1.47-1.555 0-2.9.208-4.032.624-1.133.415-2.003 1.019-2.61 1.81-.608.793-.908 1.757-.9 2.893-.008 1.286.404 2.337 1.235 3.153.831.817 2.081 1.371 3.75 1.662l2.898.512c.64.113 1.11.262 1.412.447.301.185.456.433.463.746-.007.34-.187.604-.538.788-.352.185-.797.277-1.337.277-.668 0-1.22-.14-1.657-.42a1.655 1.655 0 0 1-.772-1.2h-5.838c.163 1.677.95 3.026 2.36 4.05 1.41 1.022 3.364 1.533 5.864 1.533Z" />
</svg>